/* XPM */
static char * close_prelight_xpm[] = {
"20 24 175 2",
"  	c None",
". 	c #353535",
"+ 	c #555555",
"@ 	c #414141",
"# 	c #414041",
"$ 	c #404041",
"% 	c #414140",
"& 	c #404040",
"* 	c #414040",
"= 	c #404141",
"- 	c #404140",
"; 	c #3F4040",
"> 	c #403F40",
", 	c #40403F",
"' 	c #3F3F40",
") 	c #3F3F3F",
"! 	c #3F403F",
"~ 	c #403F3F",
"{ 	c #3F3F3E",
"] 	c #3E3F3F",
"^ 	c #3F3E3F",
"/ 	c #3E3E3E",
"( 	c #3F3E3E",
"_ 	c #3E3E3F",
": 	c #3E3F3E",
"< 	c #3C3939",
"[ 	c #3A2F2E",
"} 	c #342323",
"| 	c #392F2E",
"1 	c #3D3737",
"2 	c #3D3E3E",
"3 	c #3E3D3D",
"4 	c #3E3D3E",
"5 	c #3B3132",
"6 	c #311C1C",
"7 	c #301B1B",
"8 	c #331E1E",
"9 	c #321F1E",
"0 	c #321F1F",
"a 	c #3B3434",
"b 	c #3E3E3D",
"c 	c #3D3D3D",
"d 	c #3C3B3C",
"e 	c #3A3131",
"f 	c #2D1818",
"g 	c #352625",
"h 	c #3C2E2D",
"i 	c #49302F",
"j 	c #492F2F",
"k 	c #3D2D2C",
"l 	c #352626",
"m 	c #2F1B1B",
"n 	c #3A3132",
"o 	c #3D3D3E",
"p 	c #3C3D3C",
"q 	c #3D3C3D",
"r 	c #3C3D3D",
"s 	c #393435",
"t 	c #342526",
"u 	c #3D2D2D",
"v 	c #A92828",
"w 	c #AE1818",
"x 	c #3D2E2E",
"y 	c #342525",
"z 	c #311F1E",
"A 	c #3B3536",
"B 	c #3D3D3C",
"C 	c #3D3C3C",
"D 	c #3C3C3C",
"E 	c #362B2B",
"F 	c #311E1E",
"G 	c #A82727",
"H 	c #B40D0D",
"I 	c #B90202",
"J 	c #3D2C2C",
"K 	c #372B2B",
"L 	c #3C3C3D",
"M 	c #3C3B3B",
"N 	c #3B3C3C",
"O 	c #352727",
"P 	c #332425",
"Q 	c #45302F",
"R 	c #AE1919",
"S 	c #B60202",
"T 	c #BD0000",
"U 	c #B70202",
"V 	c #AC1919",
"W 	c #472E2F",
"X 	c #332525",
"Y 	c #3C3C3B",
"Z 	c #3B3B3C",
"` 	c #3B3B3B",
" .	c #352A2A",
"..	c #453030",
"+.	c #AE1B1B",
"@.	c #B60303",
"#.	c #B80303",
"$.	c #AB1B1B",
"%.	c #462F2F",
"&.	c #3B3C3B",
"*.	c #3A3B3B",
"=.	c #3B3A3A",
"-.	c #3A3A3A",
";.	c #3A3A3B",
">.	c #373232",
",.	c #372E2D",
"'.	c #3C3030",
").	c #AB2A2A",
"!.	c #B30E0E",
"~.	c #A42929",
"{.	c #3C2F2F",
"].	c #362D2E",
"^.	c #373233",
"/.	c #3A393A",
"(.	c #423B3B",
"_.	c #383535",
":.	c #393636",
"<.	c #3B2E2E",
"[.	c #A32A2A",
"}.	c #A91C1C",
"|.	c #3A2D2D",
"1.	c #403B3B",
"2.	c #393A39",
"3.	c #393939",
"4.	c #39393A",
"5.	c #4B4444",
"6.	c #5A4545",
"7.	c #393535",
"8.	c #3E3333",
"9.	c #513636",
"0.	c #503535",
"a.	c #3A3939",
"b.	c #373637",
"c.	c #584445",
"d.	c #4A4343",
"e.	c #393839",
"f.	c #393738",
"g.	c #453F40",
"h.	c #7B5454",
"i.	c #6B5050",
"j.	c #664F4F",
"k.	c #705151",
"l.	c #654E4E",
"m.	c #694F4F",
"n.	c #735252",
"o.	c #474242",
"p.	c #383938",
"q.	c #393838",
"r.	c #383838",
"s.	c #443F3F",
"t.	c #644F4F",
"u.	c #9E6060",
"v.	c #B67272",
"w.	c #B77474",
"x.	c #9C6060",
"y.	c #634F4E",
"z.	c #383839",
"A.	c #383939",
"B.	c #383837",
"C.	c #383738",
"D.	c #373738",
"E.	c #373838",
"F.	c #373837",
"G.	c #383737",
"H.	c #373737",
"I.	c #363637",
"J.	c #373736",
"K.	c #363737",
"L.	c #363636",
"M.	c #363736",
"N.	c #363535",
"O.	c #353635",
"P.	c #363635",
"Q.	c #363536",
"R.	c #353636",
". . . . . . . . . . . . . . . . . . . . ",
"+ + + + + + + + + + + + + + + + + + + + ",
"@ @ @ @ @ @ @ @ @ @ @ @ @ @ @ @ @ @ @ @ ",
"# $ % & * * = # - * # & = # - * $ - $ - ",
"& & & & ; > & & > & & > & & & > & & , & ",
"; ' ) ) , ) ! ' , ) ~ ) ) ' , & ) ! ' ) ",
") ) { { ) ) { ) { ) { ] ] ) ^ ) ^ { ^ ) ",
"/ ( ^ / { _ : < [ } } | 1 / / ( ( : ) / ",
"2 3 2 4 2 / 5 6 7 8 9 7 0 a 4 4 4 / / b ",
"3 c 3 3 d e f g h i j k l m n o c 2 c c ",
"p q r r s 0 t u v w w v x y z A B r C C ",
"D D D D E F x G H I I H G J F K L p D D ",
"M N M d O P Q R S T T U V W X l Y d Z D ",
"` ` ` ` E  ...+.@.T T #.$.%. .E ` ` ` &.",
"*.=.-.;.>.,.'.).!.#.#.!.~.{.].^.*.*.` ` ",
"-./.-./.(._.:.<.[.}.}.[.|._._.1.-.-.-.-.",
"2.3.4.4.5.6.7.4.8.9.0.8.a.b.c.d.4./.3.4.",
"3.e.3.e.f.g.h.i.j.k.k.l.m.n.o.f.3.3.3.p.",
"q.q.p.r.q.r.s.t.u.v.w.x.y.s.p.z.z.p.A.p.",
"r.r.B.C.D.r.r.r.E.r.F.D.B.r.E.r.E.G.r.r.",
"H.H.H.G.F.G.H.H.F.D.H.H.G.H.H.H.B.H.G.G.",
"b.I.J.b.H.b.b.K.H.L.H.J.K.H.b.b.H.M.K.J.",
"L.L.L.L.L.L.L.L.L.L.L.L.L.L.L.L.L.K.L.I.",
"N.O.N.P.L.L.P.L.P.O.O.Q.O.P.O.R.R.P.L.L."};
