/* XPM */
static char * close_active_xpm[] = {
"20 24 145 2",
"  	c None",
". 	c #353535",
"+ 	c #555555",
"@ 	c #414141",
"# 	c #414041",
"$ 	c #404041",
"% 	c #414140",
"& 	c #404040",
"* 	c #414040",
"= 	c #404141",
"- 	c #404140",
"; 	c #3F4040",
"> 	c #403F40",
", 	c #40403F",
"' 	c #3F3F40",
") 	c #3F3F3F",
"! 	c #3F403F",
"~ 	c #403F3F",
"{ 	c #3F3F3E",
"] 	c #3E3F3F",
"^ 	c #3F3E3F",
"/ 	c #3E3E3E",
"( 	c #3F3E3E",
"_ 	c #3E3E3F",
": 	c #3E3F3E",
"< 	c #3B3B3B",
"[ 	c #353534",
"} 	c #2C2C2C",
"| 	c #343534",
"1 	c #3B3A3A",
"2 	c #3D3E3E",
"3 	c #3E3D3D",
"4 	c #3E3D3E",
"5 	c #373637",
"6 	c #272627",
"7 	c #262626",
"8 	c #292828",
"9 	c #292928",
"0 	c #282929",
"a 	c #383838",
"b 	c #3E3E3D",
"c 	c #3D3D3D",
"d 	c #3C3C3D",
"e 	c #363636",
"f 	c #232323",
"g 	c #2E2E2D",
"h 	c #353635",
"i 	c #3D3D3C",
"j 	c #3D3C3C",
"k 	c #2E2E2E",
"l 	c #252526",
"m 	c #363637",
"n 	c #3D3D3E",
"o 	c #3C3D3C",
"p 	c #3D3C3D",
"q 	c #3C3D3D",
"r 	c #373738",
"s 	c #292929",
"t 	c #2D2D2E",
"u 	c #363535",
"v 	c #8E2726",
"w 	c #9B0000",
"x 	c #8F2726",
"y 	c #2C2D2D",
"z 	c #282928",
"A 	c #393839",
"B 	c #3C3C3C",
"C 	c #313131",
"D 	c #282828",
"E 	c #8F2323",
"F 	c #980000",
"G 	c #930000",
"H 	c #8E2423",
"I 	c #313231",
"J 	c #3C3B3B",
"K 	c #3B3C3C",
"L 	c #3C3B3C",
"M 	c #2E2F2E",
"N 	c #2C2C2D",
"O 	c #3B3B3A",
"P 	c #9C0000",
"Q 	c #910000",
"R 	c #940000",
"S 	c #3C3A3B",
"T 	c #3C3C3B",
"U 	c #3B3B3C",
"V 	c #303030",
"W 	c #9E0000",
"X 	c #920000",
"Y 	c #3B3C3B",
"Z 	c #3A3B3B",
"` 	c #3A3A3A",
" .	c #3A3A3B",
"..	c #333332",
"+.	c #373636",
"@.	c #942322",
"#.	c #8E2322",
"$.	c #323233",
"%.	c #353536",
"&.	c #3A393A",
"*.	c #363737",
"=.	c #8C2524",
"-.	c #9A0000",
";.	c #8C2424",
">.	c #343434",
",.	c #373737",
"'.	c #393A39",
").	c #393939",
"!.	c #39393A",
"~.	c #484848",
"{.	c #505050",
"].	c #383737",
"^.	c #444444",
"/.	c #434343",
"(.	c #3A3939",
"_.	c #4F4E4F",
":.	c #474747",
"<.	c #434243",
"[.	c #686868",
"}.	c #5E5E5E",
"|.	c #5A5B5B",
"1.	c #616161",
"2.	c #5A5A5A",
"3.	c #5C5D5D",
"4.	c #636363",
"5.	c #444545",
"6.	c #383938",
"7.	c #393838",
"8.	c #424242",
"9.	c #7F807F",
"0.	c #959494",
"a.	c #969696",
"b.	c #7E7E7E",
"c.	c #595A59",
"d.	c #383839",
"e.	c #383939",
"f.	c #383837",
"g.	c #383738",
"h.	c #373838",
"i.	c #373837",
"j.	c #373736",
"k.	c #363736",
"l.	c #363635",
"m.	c #363536",
"n.	c #353636",
". . . . . . . . . . . . . . . . . . . . ",
"+ + + + + + + + + + + + + + + + + + + + ",
"@ @ @ @ @ @ @ @ @ @ @ @ @ @ @ @ @ @ @ @ ",
"# $ % & * * = # - * # & = # - * $ - $ - ",
"& & & & ; > & & > & & > & & & > & & , & ",
"; ' ) ) , ) ! ' , ) ~ ) ) ' , & ) ! ' ) ",
") ) { { ) ) { ) { ) { ] ] ) ^ ) ^ { ^ ) ",
"/ ( ^ / { _ : < [ } } | 1 / / ( ( : ) / ",
"2 3 2 4 2 / 5 6 7 8 9 7 0 a 4 4 4 / / b ",
"3 c 3 3 d e f g h i j h k l m n c 2 c c ",
"o p q q r s t u v w w x e y z A i q j j ",
"B B B B C D e E F G G F H . D I d o B B ",
"J K J L M N O P Q R R Q w S y k T L U B ",
"< < < < C V O W Q R R X w < V C < < < Y ",
"Z 1 `  .. ..+.@.F G G F #.e $.%.Z Z < < ",
"` &.` &.) *.a [ =.-.-.;.>.,.*./ ` ` ` ` ",
"'.).!.!.~.{.].!.).^./.).(.r _.:.!.&.).!.",
").A ).A A <.[.}.|.1.1.2.3.4.5.A ).).).6.",
"7.7.6.a 7.a 8.2.9.0.a.b.c.8.6.d.d.6.e.6.",
"a a f.g.r a a a h.a i.r f.a h.a h.].a a ",
",.,.,.].i.].,.,.i.r ,.,.].,.,.,.f.,.].].",
"5 m j.5 ,.5 5 *.,.e ,.j.*.,.5 5 ,.k.*.j.",
"e e e e e e e e e e e e e e e e e *.e m ",
"u h u l.e e l.e l.h h m.h l.h n.n.l.e e "};
