/* XPM */
static char * close_inactive_xpm[] = {
"20 24 147 2",
"  	c None",
". 	c #353535",
"+ 	c #555555",
"@ 	c #414141",
"# 	c #414041",
"$ 	c #404041",
"% 	c #414140",
"& 	c #404040",
"* 	c #414040",
"= 	c #404141",
"- 	c #404140",
"; 	c #3F4040",
"> 	c #403F40",
", 	c #40403F",
"' 	c #3F3F40",
") 	c #3F3F3F",
"! 	c #3F403F",
"~ 	c #403F3F",
"{ 	c #3F3F3E",
"] 	c #3E3F3F",
"^ 	c #3F3E3F",
"/ 	c #3E3E3E",
"( 	c #3F3E3E",
"_ 	c #3E3E3F",
": 	c #3E3F3E",
"< 	c #3B3B3B",
"[ 	c #353534",
"} 	c #2C2C2C",
"| 	c #343534",
"1 	c #3B3A3A",
"2 	c #3D3E3E",
"3 	c #3E3D3D",
"4 	c #3E3D3E",
"5 	c #373637",
"6 	c #272627",
"7 	c #262626",
"8 	c #292828",
"9 	c #292928",
"0 	c #282929",
"a 	c #383838",
"b 	c #3E3E3D",
"c 	c #3D3D3D",
"d 	c #3C3C3D",
"e 	c #363636",
"f 	c #232323",
"g 	c #2E2E2D",
"h 	c #353635",
"i 	c #3D3D3C",
"j 	c #3D3C3C",
"k 	c #2E2E2E",
"l 	c #252526",
"m 	c #363637",
"n 	c #3D3D3E",
"o 	c #3C3D3C",
"p 	c #3D3C3D",
"q 	c #3C3D3D",
"r 	c #373738",
"s 	c #292929",
"t 	c #2D2D2E",
"u 	c #363535",
"v 	c #969592",
"w 	c #CCC7C1",
"x 	c #979492",
"y 	c #2C2D2D",
"z 	c #282928",
"A 	c #393839",
"B 	c #3C3C3C",
"C 	c #313131",
"D 	c #282828",
"E 	c #9B9895",
"F 	c #C8C3BC",
"G 	c #C1BCB5",
"H 	c #999793",
"I 	c #313231",
"J 	c #3C3B3B",
"K 	c #3B3C3C",
"L 	c #3C3B3C",
"M 	c #2E2F2E",
"N 	c #2C2C2D",
"O 	c #3B3B3A",
"P 	c #CEC9C2",
"Q 	c #C0BAB4",
"R 	c #C2BDB6",
"S 	c #C1BBB4",
"T 	c #CDC7C1",
"U 	c #3C3A3B",
"V 	c #3C3C3B",
"W 	c #3B3B3C",
"X 	c #303030",
"Y 	c #CFCAC3",
"Z 	c #BFBAB3",
"` 	c #C1BCB4",
" .	c #3B3C3B",
"..	c #3A3B3B",
"+.	c #3A3A3A",
"@.	c #3A3A3B",
"#.	c #333332",
"$.	c #373636",
"%.	c #9F9C99",
"&.	c #323233",
"*.	c #353536",
"=.	c #3A393A",
"-.	c #363737",
";.	c #95928F",
">.	c #CBC6C0",
",.	c #959390",
"'.	c #343434",
").	c #373737",
"!.	c #393A39",
"~.	c #393939",
"{.	c #39393A",
"].	c #484848",
"^.	c #505050",
"/.	c #383737",
"(.	c #444444",
"_.	c #434343",
":.	c #3A3939",
"<.	c #4F4E4F",
"[.	c #474747",
"}.	c #434243",
"|.	c #686868",
"1.	c #5E5E5E",
"2.	c #5A5B5B",
"3.	c #616161",
"4.	c #5A5A5A",
"5.	c #5C5D5D",
"6.	c #636363",
"7.	c #444545",
"8.	c #383938",
"9.	c #393838",
"0.	c #424242",
"a.	c #7F807F",
"b.	c #959494",
"c.	c #969696",
"d.	c #7E7E7E",
"e.	c #595A59",
"f.	c #383839",
"g.	c #383939",
"h.	c #383837",
"i.	c #383738",
"j.	c #373838",
"k.	c #373837",
"l.	c #373736",
"m.	c #363736",
"n.	c #363635",
"o.	c #363536",
"p.	c #353636",
". . . . . . . . . . . . . . . . . . . . ",
"+ + + + + + + + + + + + + + + + + + + + ",
"@ @ @ @ @ @ @ @ @ @ @ @ @ @ @ @ @ @ @ @ ",
"# $ % & * * = # - * # & = # - * $ - $ - ",
"& & & & ; > & & > & & > & & & > & & , & ",
"; ' ) ) , ) ! ' , ) ~ ) ) ' , & ) ! ' ) ",
") ) { { ) ) { ) { ) { ] ] ) ^ ) ^ { ^ ) ",
"/ ( ^ / { _ : < [ } } | 1 / / ( ( : ) / ",
"2 3 2 4 2 / 5 6 7 8 9 7 0 a 4 4 4 / / b ",
"3 c 3 3 d e f g h i j h k l m n c 2 c c ",
"o p q q r s t u v w w x e y z A i q j j ",
"B B B B C D e E F G G F H . D I d o B B ",
"J K J L M N O P Q R R S T U y k V L W B ",
"< < < < C X O Y Z R R ` w < X C < < <  .",
"..1 +.@.. #.$.%.F G G F H e &.*.....< < ",
"+.=.+.=.) -.a [ ;.>.>.,.'.).-./ +.+.+.+.",
"!.~.{.{.].^./.{.~.(._.~.:.r <.[.{.=.~.{.",
"~.A ~.A A }.|.1.2.3.3.4.5.6.7.A ~.~.~.8.",
"9.9.8.a 9.a 0.4.a.b.c.d.e.0.8.f.f.8.g.8.",
"a a h.i.r a a a j.a k.r h.a j.a j./.a a ",
").).)./.k./.).).k.r ).)./.).).).h.)././.",
"5 m l.5 ).5 5 -.).e ).l.-.).5 5 ).m.-.l.",
"e e e e e e e e e e e e e e e e e -.e m ",
"u h u n.e e n.e n.h h o.h n.h p.p.n.e e "};
