/* XPM */
static char * close_pressed_xpm[] = {
"20 24 146 2",
"  	c None",
". 	c #353535",
"+ 	c #555555",
"@ 	c #414141",
"# 	c #414041",
"$ 	c #404041",
"% 	c #414140",
"& 	c #404040",
"* 	c #414040",
"= 	c #404141",
"- 	c #404140",
"; 	c #3F4040",
"> 	c #403F40",
", 	c #40403F",
"' 	c #3F3F40",
") 	c #3F3F3F",
"! 	c #3F403F",
"~ 	c #403F3F",
"{ 	c #3F3F3E",
"] 	c #3E3F3F",
"^ 	c #3F3E3F",
"/ 	c #3E3E3E",
"( 	c #3F3E3E",
"_ 	c #3E3E3F",
": 	c #3E3F3E",
"< 	c #3B3B3B",
"[ 	c #353534",
"} 	c #2C2C2C",
"| 	c #343534",
"1 	c #3B3A3A",
"2 	c #3D3E3E",
"3 	c #3E3D3D",
"4 	c #3E3D3E",
"5 	c #373637",
"6 	c #272627",
"7 	c #262626",
"8 	c #292828",
"9 	c #292928",
"0 	c #282929",
"a 	c #383838",
"b 	c #3E3E3D",
"c 	c #3D3D3D",
"d 	c #3C3C3D",
"e 	c #363636",
"f 	c #232323",
"g 	c #2E2E2D",
"h 	c #313131",
"i 	c #2F2F2F",
"j 	c #2F2F2E",
"k 	c #2F302F",
"l 	c #2E2E2E",
"m 	c #252526",
"n 	c #363637",
"o 	c #3D3D3E",
"p 	c #3C3D3C",
"q 	c #3D3C3D",
"r 	c #3C3D3D",
"s 	c #373738",
"t 	c #292929",
"u 	c #2D2D2E",
"v 	c #313030",
"w 	c #520B0A",
"x 	c #5A0000",
"y 	c #530B0A",
"z 	c #2C2D2D",
"A 	c #282928",
"B 	c #393839",
"C 	c #3D3D3C",
"D 	c #3D3C3C",
"E 	c #3C3C3C",
"F 	c #282828",
"G 	c #303030",
"H 	c #520909",
"I 	c #570000",
"J 	c #520000",
"K 	c #510A09",
"L 	c #313231",
"M 	c #3C3B3B",
"N 	c #3B3C3C",
"O 	c #3C3B3C",
"P 	c #2E2F2E",
"Q 	c #2C2C2D",
"R 	c #302F2F",
"S 	c #5B0000",
"T 	c #500000",
"U 	c #530000",
"V 	c #2E2D2E",
"W 	c #3C3C3B",
"X 	c #3B3B3C",
"Y 	c #30302F",
"Z 	c #5D0000",
"` 	c #510000",
" .	c #2D2D2D",
"..	c #3B3C3B",
"+.	c #3A3B3B",
"@.	c #3A3A3A",
"#.	c #3A3A3B",
"$.	c #333332",
"%.	c #333232",
"&.	c #560808",
"*.	c #500808",
"=.	c #323233",
"-.	c #353536",
";.	c #3A393A",
">.	c #363737",
",.	c #4F0A0A",
"'.	c #590000",
").	c #373737",
"!.	c #393A39",
"~.	c #393939",
"{.	c #39393A",
"].	c #454545",
"^.	c #383737",
"/.	c #333333",
"(.	c #323232",
"_.	c #3A3939",
":.	c #454445",
"<.	c #444444",
"[.	c #5A5B5B",
"}.	c #545454",
"|.	c #505151",
"1.	c #505150",
"2.	c #525353",
"3.	c #575757",
"4.	c #414242",
"5.	c #383938",
"6.	c #393838",
"7.	c #535353",
"8.	c #717271",
"9.	c #828282",
"0.	c #838383",
"a.	c #707070",
"b.	c #525352",
"c.	c #383839",
"d.	c #383939",
"e.	c #383837",
"f.	c #383738",
"g.	c #373838",
"h.	c #373837",
"i.	c #373736",
"j.	c #363736",
"k.	c #363535",
"l.	c #353635",
"m.	c #363635",
"n.	c #363536",
"o.	c #353636",
". . . . . . . . . . . . . . . . . . . . ",
"+ + + + + + + + + + + + + + + + + + + + ",
"@ @ @ @ @ @ @ @ @ @ @ @ @ @ @ @ @ @ @ @ ",
"# $ % & * * = # - * # & = # - * $ - $ - ",
"& & & & ; > & & > & & > & & & > & & , & ",
"; ' ) ) , ) ! ' , ) ~ ) ) ' , & ) ! ' ) ",
") ) { { ) ) { ) { ) { ] ] ) ^ ) ^ { ^ ) ",
"/ ( ^ / { _ : < [ } } | 1 / / ( ( : ) / ",
"2 3 2 4 2 / 5 6 7 8 9 7 0 a 4 4 4 / / b ",
"3 c 3 3 d e f g h i j k l m n o c 2 c c ",
"p q r r s t u v w x x y h z A B C r D D ",
"E E E E h F G H I J J I K i F L d p E E ",
"M N M O P Q R S T U U T x V z l W O X E ",
"< < < < h G Y Z T U U ` x  .G h < < < ..",
"+.1 @.#.. $.%.&.I J J I *.h =.-.+.+.< < ",
"@.;.@.;.@.>.a G ,.'.'.,.i ).>.@.@.@.@.@.",
"!.~.{.{.].].^.{./.%.(./._.s :.<.{.;.~.{.",
"~.B ~.B B # [.}.|.+ + 1.2.3.4.B ~.~.~.5.",
"6.6.5.a 6.a & 7.8.9.0.a.b.& 5.c.c.5.d.5.",
"a a e.f.s a a a g.a h.s e.a g.a g.^.a a ",
").).).^.h.^.).).h.s ).).^.).).).e.).^.^.",
"5 n i.5 ).5 5 >.).e ).i.>.).5 5 ).j.>.i.",
"e e e e e e e e e e e e e e e e e >.e n ",
"k.l.k.m.e e m.e m.l.l.n.l.m.l.o.o.m.e e "};
