/* XPM */
static char * hide_inactive_xpm[] = {
"20 24 143 2",
"  	c None",
". 	c #353535",
"+ 	c #555555",
"@ 	c #414141",
"# 	c #414041",
"$ 	c #404041",
"% 	c #414140",
"& 	c #404040",
"* 	c #414040",
"= 	c #404141",
"- 	c #404140",
"; 	c #3F4040",
"> 	c #403F40",
", 	c #40403F",
"' 	c #3F3F40",
") 	c #3F3F3F",
"! 	c #3F403F",
"~ 	c #403F3F",
"{ 	c #3F3F3E",
"] 	c #3E3F3F",
"^ 	c #3F3E3F",
"/ 	c #3E3E3E",
"( 	c #3F3E3E",
"_ 	c #3E3E3F",
": 	c #3E3F3E",
"< 	c #3D3E3E",
"[ 	c #3E3D3D",
"} 	c #3E3D3E",
"| 	c #3C3C3C",
"1 	c #343333",
"2 	c #343433",
"3 	c #39393A",
"4 	c #3E3E3D",
"5 	c #3D3D3D",
"6 	c #3D3D3E",
"7 	c #3D3E3D",
"8 	c #353534",
"9 	c #262626",
"0 	c #282828",
"a 	c #292929",
"b 	c #272727",
"c 	c #313131",
"d 	c #3C3C3D",
"e 	c #3C3D3C",
"f 	c #3D3C3D",
"g 	c #3C3D3D",
"h 	c #333334",
"i 	c #242424",
"j 	c #363636",
"k 	c #494947",
"l 	c #4C4A4A",
"m 	c #3B3A3A",
"n 	c #303131",
"o 	c #3B3C3B",
"p 	c #3D3D3C",
"q 	c #3D3C3C",
"r 	c #373737",
"s 	c #393939",
"t 	c #888683",
"u 	c #CAC5BF",
"v 	c #CBC6BF",
"w 	c #A09D98",
"x 	c #424241",
"y 	c #3C3B3B",
"z 	c #3B3C3C",
"A 	c #3C3B3C",
"B 	c #313132",
"C 	c #2C2B2B",
"D 	c #575654",
"E 	c #C9C4BE",
"F 	c #C2BCB5",
"G 	c #C1BCB5",
"H 	c #C6C0B9",
"I 	c #807D7A",
"J 	c #2C2B2C",
"K 	c #2E2F2F",
"L 	c #3C3C3B",
"M 	c #3B3B3C",
"N 	c #3B3B3B",
"O 	c #333333",
"P 	c #303030",
"Q 	c #5A5957",
"R 	c #CAC5BE",
"S 	c #C2BDB6",
"T 	c #C4BFB8",
"U 	c #85827F",
"V 	c #2F2F2F",
"W 	c #3A3B3B",
"X 	c #3A3A3A",
"Y 	c #3A3A3B",
"Z 	c #393938",
"` 	c #353434",
" .	c #454444",
"..	c #A4A19D",
"+.	c #C5C0BA",
"@.	c #C4BFB9",
"#.	c #B2AFA9",
"$.	c #555554",
"%.	c #383838",
"&.	c #3A393A",
"*.	c #424343",
"=.	c #474747",
"-.	c #424242",
";.	c #757370",
">.	c #7A7775",
",.	c #4F4F4E",
"'.	c #434343",
").	c #444545",
"!.	c #393A39",
"~.	c #464545",
"{.	c #666667",
"].	c #575757",
"^.	c #5A5A5A",
"/.	c #59595A",
"(.	c #555655",
"_.	c #605F5F",
":.	c #4D4D4E",
"<.	c #393839",
"[.	c #383939",
"}.	c #686969",
"|.	c #8B8B8B",
"1.	c #8F8F8F",
"2.	c #707070",
"3.	c #494A4A",
"4.	c #383938",
"5.	c #393838",
"6.	c #383839",
"7.	c #383837",
"8.	c #383738",
"9.	c #373738",
"0.	c #373838",
"a.	c #373837",
"b.	c #383737",
"c.	c #373637",
"d.	c #363637",
"e.	c #373736",
"f.	c #363737",
"g.	c #363736",
"h.	c #363535",
"i.	c #353635",
"j.	c #363635",
"k.	c #363536",
"l.	c #353636",
". . . . . . . . . . . . . . . . . . . . ",
"+ + + + + + + + + + + + + + + + + + + + ",
"@ @ @ @ @ @ @ @ @ @ @ @ @ @ @ @ @ @ @ @ ",
"# $ % & * * = # - * # & = # - * $ - $ - ",
"& & & & ; > & & > & & > & & & > & & , & ",
"; ' ) ) , ) ! ' , ) ~ ) ) ' , & ) ! ' ) ",
") ) { { ) ) { ) { ) { ] ] ) ^ ) ^ { ^ ) ",
"/ ( ^ / { _ : / { ( / : ( / / ( ( : ) / ",
"< [ < } < / } } | 1 2 3 < / } } } / / 4 ",
"[ 5 [ [ 6 7 5 8 9 0 a b c d 6 6 5 < 5 5 ",
"e f g g d e h i j k l m a n o f p g q q ",
"| | | | | r 0 s t u v w x 0 . e d e | | ",
"y z y A o B C D E F G H I J K L L A M | ",
"N N N N N O P Q R G S T U V c N N N N o ",
"W m X Y X Z `  ...+.@.#.$.. %.Y W W N N ",
"X &.X &.X *.=.X -.;.>.,.X '.).X X X X X ",
"!.s 3 3 s s ~.{.].^./.(._.:.A s 3 &.s 3 ",
"s <.s <.<.<.[.'.}.|.1.2.3.s [.<.s s s 4.",
"5.5.4.%.5.%.%.%.4.5.%.<.4.%.4.6.6.4.[.4.",
"%.%.7.8.9.%.%.%.0.%.a.9.7.%.0.%.0.b.%.%.",
"r r r b.a.b.r r a.9.r r b.r r r 7.r b.b.",
"c.d.e.c.r c.c.f.r j r e.f.r c.c.r g.f.e.",
"j j j j j j j j j j j j j j j j j f.j d.",
"h.i.h.j.j j j.j j.i.i.k.i.j.i.l.l.j.j j "};
