/* XPM */
static char * hide_prelight_xpm[] = {
"20 24 139 2",
"  	c None",
". 	c #353535",
"+ 	c #555555",
"@ 	c #414141",
"# 	c #414041",
"$ 	c #404041",
"% 	c #414140",
"& 	c #404040",
"* 	c #414040",
"= 	c #404141",
"- 	c #404140",
"; 	c #3F4040",
"> 	c #403F40",
", 	c #40403F",
"' 	c #3F3F40",
") 	c #3F3F3F",
"! 	c #3F403F",
"~ 	c #403F3F",
"{ 	c #3F3F3E",
"] 	c #3E3F3F",
"^ 	c #3F3E3F",
"/ 	c #3E3E3E",
"( 	c #3F3E3E",
"_ 	c #3E3E3F",
": 	c #3E3F3E",
"< 	c #3D3E3E",
"[ 	c #3E3D3D",
"} 	c #3E3D3E",
"| 	c #3C3C3C",
"1 	c #343333",
"2 	c #343433",
"3 	c #39393A",
"4 	c #3E3E3D",
"5 	c #3D3D3D",
"6 	c #3D3D3E",
"7 	c #3D3E3D",
"8 	c #353534",
"9 	c #262626",
"0 	c #282828",
"a 	c #292929",
"b 	c #272727",
"c 	c #313131",
"d 	c #3C3C3D",
"e 	c #3C3D3C",
"f 	c #3D3C3D",
"g 	c #3C3D3D",
"h 	c #333334",
"i 	c #242424",
"j 	c #525E61",
"k 	c #5F7274",
"l 	c #62767A",
"m 	c #556265",
"n 	c #303131",
"o 	c #3B3C3B",
"p 	c #3D3D3C",
"q 	c #3D3C3C",
"r 	c #373737",
"s 	c #536062",
"t 	c #7CA0A6",
"u 	c #9FD7DF",
"v 	c #88B3B9",
"w 	c #58686A",
"x 	c #3C3B3B",
"y 	c #3B3C3C",
"z 	c #3C3B3C",
"A 	c #313132",
"B 	c #2C2B2B",
"C 	c #63787B",
"D 	c #799CA0",
"E 	c #2C2B2C",
"F 	c #2E2F2F",
"G 	c #3C3C3B",
"H 	c #3B3B3C",
"I 	c #3B3B3B",
"J 	c #333333",
"K 	c #303030",
"L 	c #647B7E",
"M 	c #7DA2A7",
"N 	c #2F2F2F",
"O 	c #3A3B3B",
"P 	c #3B3A3A",
"Q 	c #3A3A3A",
"R 	c #3A3A3B",
"S 	c #404242",
"T 	c #353434",
"U 	c #4E5A5B",
"V 	c #8CBAC0",
"W 	c #94C6CD",
"X 	c #5E7275",
"Y 	c #404345",
"Z 	c #3A393A",
"` 	c #3F4343",
" .	c #474E50",
"..	c #4C5658",
"+.	c #729296",
"@.	c #76989D",
"#.	c #576769",
"$.	c #444A4A",
"%.	c #404546",
"&.	c #393A39",
"*.	c #393939",
"=.	c #414444",
"-.	c #536164",
";.	c #4A5455",
">.	c #4E5A5C",
",.	c #4F5B5D",
"'.	c #4A5454",
").	c #4F5B5C",
"!.	c #444A4C",
"~.	c #3B3A3B",
"{.	c #393839",
"].	c #383939",
"^.	c #3E4142",
"/.	c #515F61",
"(.	c #637A7E",
"_.	c #657E81",
":.	c #556567",
"<.	c #404647",
"[.	c #383938",
"}.	c #393838",
"|.	c #383838",
"1.	c #383839",
"2.	c #383837",
"3.	c #383738",
"4.	c #373738",
"5.	c #373838",
"6.	c #373837",
"7.	c #383737",
"8.	c #373637",
"9.	c #363637",
"0.	c #373736",
"a.	c #363737",
"b.	c #363636",
"c.	c #363736",
"d.	c #363535",
"e.	c #353635",
"f.	c #363635",
"g.	c #363536",
"h.	c #353636",
". . . . . . . . . . . . . . . . . . . . ",
"+ + + + + + + + + + + + + + + + + + + + ",
"@ @ @ @ @ @ @ @ @ @ @ @ @ @ @ @ @ @ @ @ ",
"# $ % & * * = # - * # & = # - * $ - $ - ",
"& & & & ; > & & > & & > & & & > & & , & ",
"; ' ) ) , ) ! ' , ) ~ ) ) ' , & ) ! ' ) ",
") ) { { ) ) { ) { ) { ] ] ) ^ ) ^ { ^ ) ",
"/ ( ^ / { _ : / { ( / : ( / / ( ( : ) / ",
"< [ < } < / } } | 1 2 3 < / } } } / / 4 ",
"[ 5 [ [ 6 7 5 8 9 0 a b c d 6 6 5 < 5 5 ",
"e f g g d e h i j k l m a n o f p g q q ",
"| | | | | r 0 s t u u v w 0 . e d e | | ",
"x y x z o A B C u u u u D E F G G z H | ",
"I I I I I J K L u u u u M N c I I I I o ",
"O P Q R Q S T U V u u W X . Y R O O I I ",
"Q Z Q Z Q `  .Q ..+.@.#.Q $.%.Q Q Q Q Q ",
"&.*.3 3 *.*.=.-.;.>.,.'.).!.~.*.3 Z *.3 ",
"*.{.*.{.{.{.].^./.(._.:.<.*.].{.*.*.*.[.",
"}.}.[.|.}.|.|.|.[.}.|.{.[.|.[.1.1.[.].[.",
"|.|.2.3.4.|.|.|.5.|.6.4.2.|.5.|.5.7.|.|.",
"r r r 7.6.7.r r 6.4.r r 7.r r r 2.r 7.7.",
"8.9.0.8.r 8.8.a.r b.r 0.a.r 8.8.r c.a.0.",
"b.b.b.b.b.b.b.b.b.b.b.b.b.b.b.b.b.a.b.9.",
"d.e.d.f.b.b.f.b.f.e.e.g.e.f.e.h.h.f.b.b."};
