/* XPM */
static char * maximize_pressed_xpm[] = {
"20 24 125 2",
"  	c None",
". 	c #353535",
"+ 	c #555555",
"@ 	c #414141",
"# 	c #414041",
"$ 	c #404041",
"% 	c #414140",
"& 	c #404040",
"* 	c #414040",
"= 	c #404141",
"- 	c #404140",
"; 	c #3F4040",
"> 	c #403F40",
", 	c #40403F",
"' 	c #3F3F40",
") 	c #3F3F3F",
"! 	c #3F403F",
"~ 	c #403F3F",
"{ 	c #3F3F3E",
"] 	c #3E3F3F",
"^ 	c #3F3E3F",
"/ 	c #3E3E3E",
"( 	c #3F3E3E",
"_ 	c #3E3E3F",
": 	c #3E3F3E",
"< 	c #3D3E3E",
"[ 	c #3E3D3D",
"} 	c #3E3D3E",
"| 	c #3C3C3C",
"1 	c #343333",
"2 	c #343433",
"3 	c #39393A",
"4 	c #3E3E3D",
"5 	c #3D3D3D",
"6 	c #3D3D3E",
"7 	c #3D3E3D",
"8 	c #353534",
"9 	c #262626",
"0 	c #282828",
"a 	c #292929",
"b 	c #272727",
"c 	c #313131",
"d 	c #3C3C3D",
"e 	c #3C3D3C",
"f 	c #3D3C3D",
"g 	c #3C3D3D",
"h 	c #333334",
"i 	c #242424",
"j 	c #494949",
"k 	c #515150",
"l 	c #535253",
"m 	c #4B4A4B",
"n 	c #303131",
"o 	c #3B3C3B",
"p 	c #3D3D3C",
"q 	c #3D3C3C",
"r 	c #373737",
"s 	c #626262",
"t 	c #777777",
"u 	c #696969",
"v 	c #4D4D4C",
"w 	c #3C3B3B",
"x 	c #3B3C3C",
"y 	c #3C3B3C",
"z 	c #313132",
"A 	c #2C2B2B",
"B 	c #535252",
"C 	c #606060",
"D 	c #2C2B2C",
"E 	c #2E2F2F",
"F 	c #3C3C3B",
"G 	c #3B3B3C",
"H 	c #3B3B3B",
"I 	c #333333",
"J 	c #303030",
"K 	c #535353",
"L 	c #2F2F2F",
"M 	c #3A3B3B",
"N 	c #3B3A3A",
"O 	c #3A3A3A",
"P 	c #3A3A3B",
"Q 	c #353434",
"R 	c #464646",
"S 	c #6B6B6B",
"T 	c #707070",
"U 	c #4F5050",
"V 	c #3A393A",
"W 	c #424242",
"X 	c #454545",
"Y 	c #5C5C5C",
"Z 	c #5E5E5E",
"` 	c #4B4B4B",
" .	c #393A39",
"..	c #393939",
"+.	c #484849",
"@.	c #434343",
"#.	c #434443",
"$.	c #474646",
"%.	c #393839",
"&.	c #383939",
"*.	c #474848",
"=.	c #525252",
"-.	c #545454",
";.	c #494A49",
">.	c #383938",
",.	c #393838",
"'.	c #383838",
").	c #383839",
"!.	c #383837",
"~.	c #383738",
"{.	c #373738",
"].	c #373838",
"^.	c #373837",
"/.	c #383737",
"(.	c #373637",
"_.	c #363637",
":.	c #373736",
"<.	c #363737",
"[.	c #363636",
"}.	c #363736",
"|.	c #363535",
"1.	c #353635",
"2.	c #363635",
"3.	c #363536",
"4.	c #353636",
". . . . . . . . . . . . . . . . . . . . ",
"+ + + + + + + + + + + + + + + + + + + + ",
"@ @ @ @ @ @ @ @ @ @ @ @ @ @ @ @ @ @ @ @ ",
"# $ % & * * = # - * # & = # - * $ - $ - ",
"& & & & ; > & & > & & > & & & > & & , & ",
"; ' ) ) , ) ! ' , ) ~ ) ) ' , & ) ! ' ) ",
") ) { { ) ) { ) { ) { ] ] ) ^ ) ^ { ^ ) ",
"/ ( ^ / { _ : / { ( / : ( / / ( ( : ) / ",
"< [ < } < / } } | 1 2 3 < / } } } / / 4 ",
"[ 5 [ [ 6 7 5 8 9 0 a b c d 6 6 5 < 5 5 ",
"e f g g d e h i j k l m a n o f p g q q ",
"| | | | | r 0 j s t t u v 0 . e d e | | ",
"w x w y o z A B t t t t C D E F F y G | ",
"H H H H H I J K t t t t s L c H H H H o ",
"M N O P O 4 Q R S t t T U . 6 P M M H H ",
"O V O V O g W O X Y Z ` O & < O O O O O ",
" ...3 3 ....[ +.@.R R #.$.& V ..3 V ..3 ",
"..%...%.%.%.&.| *.=.-.;.< ..&.%.......>.",
",.,.>.'.,.'.'.'.>.,.'.%.>.'.>.).).>.&.>.",
"'.'.!.~.{.'.'.'.].'.^.{.!.'.].'.]./.'.'.",
"r r r /.^./.r r ^.{.r r /.r r r !.r /./.",
"(._.:.(.r (.(.<.r [.r :.<.r (.(.r }.<.:.",
"[.[.[.[.[.[.[.[.[.[.[.[.[.[.[.[.[.<.[._.",
"|.1.|.2.[.[.2.[.2.1.1.3.1.2.1.4.4.2.[.[."};
