/* XPM */
static char * shade_active_xpm[] = {
"20 24 134 2",
"  	c None",
". 	c #353535",
"+ 	c #555555",
"@ 	c #414141",
"# 	c #414041",
"$ 	c #404041",
"% 	c #414140",
"& 	c #404040",
"* 	c #414040",
"= 	c #404141",
"- 	c #404140",
"; 	c #3F4040",
"> 	c #403F40",
", 	c #40403F",
"' 	c #3F3F40",
") 	c #3F3F3F",
"! 	c #3F403F",
"~ 	c #403F3F",
"{ 	c #3F3F3E",
"] 	c #3E3F3F",
"^ 	c #3F3E3F",
"/ 	c #3E3E3E",
"( 	c #3F3E3E",
"_ 	c #3E3E3F",
": 	c #3E3F3E",
"< 	c #3D3E3E",
"[ 	c #3E3D3D",
"} 	c #3E3D3E",
"| 	c #3C3C3C",
"1 	c #343333",
"2 	c #343433",
"3 	c #39393A",
"4 	c #3E3E3D",
"5 	c #3D3D3D",
"6 	c #3D3D3E",
"7 	c #3D3E3D",
"8 	c #353534",
"9 	c #262626",
"0 	c #282828",
"a 	c #292929",
"b 	c #272727",
"c 	c #313131",
"d 	c #3C3C3D",
"e 	c #3C3D3C",
"f 	c #3D3C3D",
"g 	c #3C3D3D",
"h 	c #333334",
"i 	c #242424",
"j 	c #676768",
"k 	c #808080",
"l 	c #868686",
"m 	c #6D6C6D",
"n 	c #303131",
"o 	c #3B3C3B",
"p 	c #3D3D3C",
"q 	c #3D3C3C",
"r 	c #373737",
"s 	c #696969",
"t 	c #BABABA",
"u 	c #FFFFFF",
"v 	c #D2D2D2",
"w 	c #737373",
"x 	c #3C3B3B",
"y 	c #3B3C3C",
"z 	c #3C3B3C",
"A 	c #313132",
"B 	c #2C2B2B",
"C 	c #898888",
"D 	c #B4B4B4",
"E 	c #2C2B2C",
"F 	c #2E2F2F",
"G 	c #3C3C3B",
"H 	c #3B3B3C",
"I 	c #3B3B3B",
"J 	c #333333",
"K 	c #303030",
"L 	c #8B8B8B",
"M 	c #BCBCBC",
"N 	c #2F2F2F",
"O 	c #3A3B3B",
"P 	c #3B3A3A",
"Q 	c #3A3A3A",
"R 	c #3A3A3B",
"S 	c #444444",
"T 	c #353434",
"U 	c #626262",
"V 	c #DADADA",
"W 	c #EAEAEA",
"X 	c #464647",
"Y 	c #3A393A",
"Z 	c #444545",
"` 	c #545454",
" .	c #5E5E5E",
"..	c #A8A8A8",
"+.	c #B0B0B0",
"@.	c #4E4E4E",
"#.	c #474848",
"$.	c #393A39",
"%.	c #393939",
"&.	c #474646",
"*.	c #6B6B6C",
"=.	c #5B5B5B",
"-.	c #646464",
";.	c #5A5B5A",
">.	c #646363",
",.	c #4F4F50",
"'.	c #393839",
").	c #383939",
"!.	c #434343",
"~.	c #686969",
"{.	c #8F8F8F",
"].	c #707070",
"^.	c #494A4A",
"/.	c #383938",
"(.	c #393838",
"_.	c #383838",
":.	c #383839",
"<.	c #383837",
"[.	c #383738",
"}.	c #373738",
"|.	c #373838",
"1.	c #373837",
"2.	c #383737",
"3.	c #373637",
"4.	c #363637",
"5.	c #373736",
"6.	c #363737",
"7.	c #363636",
"8.	c #363736",
"9.	c #363535",
"0.	c #353635",
"a.	c #363635",
"b.	c #363536",
"c.	c #353636",
". . . . . . . . . . . . . . . . . . . . ",
"+ + + + + + + + + + + + + + + + + + + + ",
"@ @ @ @ @ @ @ @ @ @ @ @ @ @ @ @ @ @ @ @ ",
"# $ % & * * = # - * # & = # - * $ - $ - ",
"& & & & ; > & & > & & > & & & > & & , & ",
"; ' ) ) , ) ! ' , ) ~ ) ) ' , & ) ! ' ) ",
") ) { { ) ) { ) { ) { ] ] ) ^ ) ^ { ^ ) ",
"/ ( ^ / { _ : / { ( / : ( / / ( ( : ) / ",
"< [ < } < / } } | 1 2 3 < / } } } / / 4 ",
"[ 5 [ [ 6 7 5 8 9 0 a b c d 6 6 5 < 5 5 ",
"e f g g d e h i j k l m a n o f p g q q ",
"| | | | | r 0 s t u u v w 0 . e d e | | ",
"x y x z o A B C u u u u D E F G G z H | ",
"I I I I I J K L u u u u M N c I I I I o ",
"O P Q R Q S T U V u u W k . X R O O I I ",
"Q Y Q Y Q Z ` Q  ...+.w Q @.#.Q Q Q Q Q ",
"$.%.3 3 %.%.&.*.=.U -.;.>.,.z %.3 Y %.3 ",
"%.'.%.'.'.'.).!.~.L {.].^.%.).'.%.%.%./.",
"(.(./._.(._._._./.(._.'./._./.:.:./.)./.",
"_._.<.[.}._._._.|._.1.}.<._.|._.|.2._._.",
"r r r 2.1.2.r r 1.}.r r 2.r r r <.r 2.2.",
"3.4.5.3.r 3.3.6.r 7.r 5.6.r 3.3.r 8.6.5.",
"7.7.7.7.7.7.7.7.7.7.7.7.7.7.7.7.7.6.7.4.",
"9.0.9.a.7.7.a.7.a.0.0.b.0.a.0.c.c.a.7.7."};
