/* XPM */
static char * top_left_inactive_xpm[] = {
"8 24 25 1",
" 	c None",
".	c #353535",
"+	c #555555",
"@	c #414141",
"#	c #414041",
"$	c #404040",
"%	c #3F4040",
"&	c #3F3F3F",
"*	c #3E3E3E",
"=	c #3D3E3E",
"-	c #3E3D3D",
";	c #3C3D3C",
">	c #3C3C3C",
",	c #3C3B3B",
"'	c #3B3B3B",
")	c #3A3B3B",
"!	c #3A3A3A",
"~	c #393A39",
"{	c #393939",
"]	c #393838",
"^	c #383838",
"/	c #373737",
"(	c #373637",
"_	c #363636",
":	c #363535",
"     ...",
"   ..+++",
"  .++@@@",
" .+#####",
" .+$$$$$",
".%%%%%%%",
".&&&&&&&",
".*******",
".=======",
".-------",
".;;;;;;;",
".>>>>>>>",
".,,,,,,,",
".'''''''",
".)))))))",
".!!!!!!!",
".~~~~~~~",
".{{{{{{{",
".]]]]]]]",
".^^^^^^^",
".///////",
".(((((((",
"._______",
".:::::::"};
