<?xml version="1.0" encoding="UTF-8" standalone="no"?>
<!-- Created with Inkscape (http://www.inkscape.org/) -->

<svg
   xmlns:osb="http://www.openswatchbook.org/uri/2009/osb"
   xmlns:dc="http://purl.org/dc/elements/1.1/"
   xmlns:cc="http://creativecommons.org/ns#"
   xmlns:rdf="http://www.w3.org/1999/02/22-rdf-syntax-ns#"
   xmlns:svg="http://www.w3.org/2000/svg"
   xmlns="http://www.w3.org/2000/svg"
   xmlns:xlink="http://www.w3.org/1999/xlink"
   xmlns:sodipodi="http://sodipodi.sourceforge.net/DTD/sodipodi-0.dtd"
   xmlns:inkscape="http://www.inkscape.org/namespaces/inkscape"
   version="1.0"
   width="32"
   height="32"
   viewBox="0 0 23.272727 23.272728"
   id="Foreground"
   xml:space="preserve"
   inkscape:version="0.48.3.1 r9886"
   sodipodi:docname="close-window.svg"><sodipodi:namedview
   pagecolor="#ffffff"
   bordercolor="#666666"
   borderopacity="1"
   objecttolerance="10"
   gridtolerance="10"
   guidetolerance="10"
   inkscape:pageopacity="0"
   inkscape:pageshadow="2"
   inkscape:window-width="1366"
   inkscape:window-height="721"
   id="namedview12"
   showgrid="false"
   inkscape:zoom="21.206171"
   inkscape:cx="16.000001"
   inkscape:cy="16"
   inkscape:window-x="0"
   inkscape:window-y="22"
   inkscape:window-maximized="1"
   inkscape:current-layer="layer1" /><metadata
   id="metadata2399"><rdf:RDF><cc:Work
       rdf:about=""><dc:format>image/svg+xml</dc:format><dc:type
         rdf:resource="http://purl.org/dc/dcmitype/StillImage" /><dc:title /></cc:Work></rdf:RDF></metadata><defs
   id="defs2397"><linearGradient
     id="linearGradient4969"
     osb:paint="solid"><stop
       style="stop-color:#466464;stop-opacity:1;"
       offset="0"
       id="stop4971" /></linearGradient><marker
     inkscape:stockid="Arrow1Lstart"
     orient="auto"
     refY="0.0"
     refX="0.0"
     id="Arrow1Lstart"
     style="overflow:visible"><path
       id="path4123"
       d="M 0.0,0.0 L 5.0,-5.0 L -12.5,0.0 L 5.0,5.0 L 0.0,0.0 z "
       style="fill-rule:evenodd;stroke:#000000;stroke-width:1.0pt"
       transform="scale(0.8) translate(12.5,0)" /></marker><linearGradient
     id="linearGradient3975"><stop
       id="stop3977"
       style="stop-color:#bad3b7;stop-opacity:1"
       offset="0" /><stop
       id="stop3979"
       style="stop-color:#e5ecdd;stop-opacity:1"
       offset="1" /></linearGradient><linearGradient
     x1="11.625"
     y1="7.53125"
     x2="11.625"
     y2="0.1875"
     id="linearGradient4738"
     xlink:href="#linearGradient3975"
     gradientUnits="userSpaceOnUse"
     gradientTransform="matrix(0.91491398,0,0,0.92891195,-0.23003676,9.468834)" /><linearGradient
     inkscape:collect="always"
     xlink:href="#linearGradient4969"
     id="linearGradient4973"
     x1="2.63125"
     y1="16"
     x2="29.36875"
     y2="16"
     gradientUnits="userSpaceOnUse" /></defs>

<g
   inkscape:groupmode="layer"
   id="layer1"
   inkscape:label="base"><path
     style="color:#000000;fill:#787878;fill-opacity:1;stroke:url(#linearGradient4973);stroke-width:2.29999999999999982;stroke-linecap:square;stroke-linejoin:miter;stroke-miterlimit:4;stroke-opacity:1;stroke-dasharray:none;stroke-dashoffset:0;marker:none;visibility:visible;display:inline;overflow:visible;enable-background:accumulate"
     d="M 4.15625 3.53125 C 3.8061555 3.53125 3.53125 3.7824209 3.53125 4.09375 L 3.53125 27.90625 C 3.53125 28.217579 3.8061555 28.46875 4.15625 28.46875 L 27.84375 28.46875 C 28.193845 28.46875 28.46875 28.217579 28.46875 27.90625 L 28.46875 4.09375 C 28.46875 3.7824209 28.193845 3.53125 27.84375 3.53125 L 4.15625 3.53125 z "
     transform="scale(0.72727275,0.72727275)"
     id="rect16256-9-4" /></g><g
   inkscape:groupmode="layer"
   id="layer2"
   inkscape:label="croce"
   style="display:inline"><path
     d="m 8.0208099,7.00274 c 0,0 -0.2361086,0.105795 -0.5396301,0.4439874 C 6.8741354,8.1231177 6.1782931,8.6322677 6.8316166,9.2645305 L 9.2687416,11.65067 6.831617,14.000661 c -0.6535842,0.631977 -0.064921,0.998428 0.5418467,1.675088 0.6067667,0.676655 0.9979822,1.415335 1.6515654,0.783373 l 2.6112019,-2.530758 2.611207,2.530756 c 0.653323,0.632265 0.9738,0.03511 1.580844,-0.641289 0.607046,-0.676388 1.26589,-1.184907 0.612584,-1.817169 L 14.003741,11.650674 16.440866,9.2645316 C 17.094441,8.632557 16.506866,8.159541 15.900092,7.482884 15.293323,6.8062253 14.901018,6.1741086 14.247432,6.8060962 L 11.636233,9.3368372 9.0250299,6.806082 C 8.6983673,6.4899506 8.0208099,7.00274 8.0208099,7.00274 z"
     id="rect4761"
     style="fill:#466464;fill-opacity:1;stroke:none"
     inkscape:connector-curvature="0"
     sodipodi:nodetypes="cscccscccscccscccc" /><path
     d="m 8.2790635,7.3337133 c 0,0 -0.2192441,0.098237 -0.501085,0.4122741 C 7.2142946,8.3740662 6.5681553,8.846851 7.1748127,9.4339537 l 2.2630447,2.2157023 -2.2630443,2.182141 c -0.6068994,0.586834 -0.060284,0.927113 0.5031434,1.55544 0.5634265,0.628325 0.9266975,1.31424 1.533596,0.727419 l 2.4246885,-2.349997 2.424693,2.349997 c 0.606658,0.587104 0.904241,0.0325 1.467923,-0.595487 0.563687,-0.628075 1.175472,-1.10027 0.568828,-1.687372 L 13.834643,11.64966 16.097685,9.4339537 C 16.704577,8.8471196 16.15898,8.4078879 15.59554,7.779562 15.032112,7.1512363 14.667827,6.564268 14.060927,7.1511149 L 11.636244,9.501094 9.2115536,7.1511019 C 8.9082235,6.8575614 8.2790635,7.3337089 8.2790635,7.3337089 z"
     id="rect4761-0"
     style="fill:#3c3c3c;fill-opacity:1;stroke:none;display:inline"
     inkscape:connector-curvature="0"
     sodipodi:nodetypes="cscccscccscccscccc" /></g><g
   style="display:inline"
   inkscape:label="croce copia"
   id="g3806"
   inkscape:groupmode="layer" /></svg>